<?xml version="1.0" encoding="iso-8859-1"?>
<!-- Generator: Adobe Illustrator 19.0.0, SVG Export Plug-In . SVG Version: 6.00 Build 0)  -->
<svg version="1.1" id="Layer_1" xmlns="http://www.w3.org/2000/svg" xmlns:xlink="http://www.w3.org/1999/xlink" x="0px" y="0px"
	 viewBox="0 0 512.001 512.001" style="enable-background:new 0 0 512.001 512.001;" xml:space="preserve">
<g>
	<path style="fill:#FFC552;" d="M438.43,242.699c-9.596,0-17.374,7.778-17.374,17.374v86.872h34.749v-86.872
		C455.804,250.477,448.026,242.699,438.43,242.699z"/>
	<path style="fill:#FFC552;" d="M73.57,242.699c9.596,0,17.374,7.778,17.374,17.374v86.872H56.195v-86.872
		C56.195,250.477,63.975,242.699,73.57,242.699z"/>
</g>
<circle style="fill:#72CCC5;" cx="256" cy="268.759" r="182.43"/>
<path style="fill:#11BBA3;" d="M256,373.006c-87.333,0-160.32-61.373-178.217-143.338c-2.751,12.595-4.213,25.672-4.213,39.092
	c0,100.754,81.677,182.43,182.43,182.43s182.43-81.677,182.43-182.43c0-13.421-1.463-26.497-4.213-39.092
	C416.32,311.634,343.333,373.006,256,373.006z"/>
<path id="SVGCleanerId_0" style="fill:#66BF00;" d="M222.845,160.61l5.719,17.158c0.864,2.594,2.9,4.629,5.495,5.495l16.001,5.334
	c3.548,1.183,5.94,4.502,5.94,8.241v17.17c0,1.715-0.507,3.391-1.459,4.819l-14.456,21.684c-0.951,1.427-1.459,3.103-1.459,4.819
	v25.336c0,3.986,2.713,7.461,6.581,8.428l21.589,5.397c3.867,0.966,6.581,4.441,6.581,8.428v15.337c0,2.505,1.082,4.889,2.967,6.538
	l62.785,54.936c2.321,2.031,5.542,2.679,8.468,1.704l16.246-5.415c3.122-1.04,5.387-3.755,5.853-7.013l7.84-54.884
	c0.059-0.407,0.087-0.818,0.087-1.228v-16.756c0-4.797,3.89-8.687,8.687-8.687h21.886c2.639,0,5.135-1.2,6.784-3.26l19.793-24.74
	c1.478-1.847,2.162-4.221,1.83-6.563C424.032,154.39,347.968,86.332,256,86.332c-25.964,0-50.656,5.431-73.013,15.208
	c-3.15,1.378-5.171,4.511-5.171,7.95v30.53c0,4.141,2.923,7.707,6.983,8.519l31.508,6.301
	C219.365,155.45,221.86,157.652,222.845,160.61z"/>
<g>
	<path id="SVGCleanerId_0_1_" style="fill:#66BF00;" d="M222.845,160.61l5.719,17.158c0.864,2.594,2.9,4.629,5.495,5.495
		l16.001,5.334c3.548,1.183,5.94,4.502,5.94,8.241v17.17c0,1.715-0.507,3.391-1.459,4.819l-14.456,21.684
		c-0.951,1.427-1.459,3.103-1.459,4.819v25.336c0,3.986,2.713,7.461,6.581,8.428l21.589,5.397c3.867,0.966,6.581,4.441,6.581,8.428
		v15.337c0,2.505,1.082,4.889,2.967,6.538l62.785,54.936c2.321,2.031,5.542,2.679,8.468,1.704l16.246-5.415
		c3.122-1.04,5.387-3.755,5.853-7.013l7.84-54.884c0.059-0.407,0.087-0.818,0.087-1.228v-16.756c0-4.797,3.89-8.687,8.687-8.687
		h21.886c2.639,0,5.135-1.2,6.784-3.26l19.793-24.74c1.478-1.847,2.162-4.221,1.83-6.563C424.032,154.39,347.968,86.332,256,86.332
		c-25.964,0-50.656,5.431-73.013,15.208c-3.15,1.378-5.171,4.511-5.171,7.95v30.53c0,4.141,2.923,7.707,6.983,8.519l31.508,6.301
		C219.365,155.45,221.86,157.652,222.845,160.61z"/>
</g>
<path style="fill:#66BF00;" d="M235.721,301.766l-38.476-23.086c-1.326-0.796-2.324-2.039-2.812-3.506l-15.141-45.421
	c-0.882-2.645-3.356-4.429-6.145-4.429h-35.3c-2.165,0-4.188,1.083-5.389,2.884l-3.585,5.377
	c-3.555,5.333-11.867,2.816-11.867-3.593l0,0c0-2.787-1.784-5.263-4.429-6.145l-24.174-8.058c-3.499-1.166-7.296,0.811-8.278,4.366
	c-4.269,15.475-6.554,31.772-6.554,48.605c0,92.426,68.737,168.785,157.878,180.777c2.302,0.309,4.587-0.684,5.98-2.542
	l8.444-11.259c0.93-1.239,1.385-2.771,1.281-4.318l-8.302-124.531C238.71,304.772,237.541,302.857,235.721,301.766z"/>
<path style="fill:#58AB23;" d="M77.782,229.662c-2.754,12.596-4.211,25.676-4.211,39.098c0,93.709,70.66,170.903,161.605,181.24
	l12.138-16.184l-4.084-61.262C161.621,366.909,94.797,307.6,77.782,229.662z"/>
<path style="fill:#FFE5BA;" d="M22.287,216.657c9.345,0.44,16.535,8.49,16.535,17.846l17.374,77.694l52.123,43.436h18.859
	c3.271,0,5.368-3.478,3.842-6.37l-17.704-33.56c-6.734-6.836-6.651-17.837,0.185-24.571c6.836-6.734,17.837-6.651,24.571,0.185
	c0,0,44.743,67.067,64.878,95.426c6.266,8.826,9.617,19.389,9.617,30.213v86.358c0,4.797-3.89,8.687-8.687,8.687h-60.81
	c-4.797,0-8.687-3.89-8.687-8.687v-43.436L31.698,348.638c-1.024-1.11-1.742-2.467-2.082-3.939L4.072,234.012
	C4.072,224.138,12.31,216.187,22.287,216.657z"/>
<path style="fill:#FFD686;" d="M16.882,217.244L44.25,338.619l116.552,121.62v51.761h-17.736c-4.797,0-8.687-3.89-8.687-8.687
	v-43.436L31.698,348.638c-1.024-1.11-1.742-2.467-2.082-3.939L4.072,234.012C4.072,225.996,9.501,219.249,16.882,217.244z"/>
<path style="fill:#FFE5BA;" d="M489.713,216.657c-9.345,0.44-14.463,8.722-16.535,17.846c-5.068,22.313-17.374,77.694-17.374,77.694
	l-52.123,43.436h-18.859c-3.271,0-5.368-3.478-3.842-6.37l17.704-33.56c6.734-6.836,6.651-17.837-0.185-24.571
	c-6.836-6.734-17.837-6.651-24.571,0.185c0,0-44.743,67.067-64.878,95.426c-6.266,8.826-9.617,19.389-9.617,30.213v86.358
	c0,4.797,3.89,8.687,8.687,8.687h60.81c4.797,0,8.687-3.89,8.687-8.687v-43.436l102.683-111.24c1.024-1.11,1.742-2.467,2.082-3.939
	l25.544-110.687C507.927,224.138,499.691,216.187,489.713,216.657z"/>
<path style="fill:#FFD686;" d="M495.118,217.244l-27.369,121.375l-116.552,121.62v51.761h17.736c4.797,0,8.687-3.89,8.687-8.687
	v-43.436l102.683-111.24c1.024-1.11,1.742-2.467,2.082-3.939l25.543-110.687C507.927,225.996,502.499,219.249,495.118,217.244z"/>
<path style="fill:#FFC552;" d="M474.434,80.047c-4.399-1.822-15.037-4.551-27.316,4.277c-12.278-8.828-22.917-6.099-27.316-4.277
	c-9.462,3.92-15.577,13.206-15.577,23.656c0,30.742,37.648,49.919,39.251,50.72c2.273,1.136,5.012,1.136,7.285,0
	c1.603-0.801,39.251-19.978,39.251-50.72C490.01,93.253,483.895,83.967,474.434,80.047z"/>
<path style="fill:#FC9C47;" d="M460.306,146.288c-1.603-0.801-39.251-19.978-39.251-50.72c0-6.596,2.44-12.722,6.614-17.334
	c-3.409,0.232-6.129,1.093-7.868,1.813c-9.462,3.92-15.577,13.206-15.577,23.656c0,30.742,37.648,49.919,39.251,50.72
	c2.273,1.136,5.012,1.136,7.285,0c0.565-0.282,5.608-2.854,11.896-7.398C461.845,146.897,461.05,146.659,460.306,146.288z"/>
<path style="fill:#FFC552;" d="M92.198,80.047c-4.399-1.822-15.036-4.551-27.316,4.277c-12.279-8.828-22.917-6.099-27.316-4.277
	c-9.462,3.92-15.577,13.206-15.577,23.656c0,30.742,37.648,49.919,39.251,50.72c2.273,1.136,5.011,1.136,7.284,0
	c1.603-0.801,39.251-19.978,39.251-50.72C107.775,93.253,101.661,83.967,92.198,80.047z"/>
<path style="fill:#FC9C47;" d="M78.072,146.288c-1.603-0.801-39.251-19.978-39.251-50.72c0-6.596,2.44-12.722,6.614-17.334
	c-3.409,0.232-6.129,1.093-7.868,1.813c-9.462,3.92-15.577,13.206-15.577,23.656c0,30.742,37.648,49.919,39.251,50.72
	c2.273,1.136,5.011,1.136,7.284,0c0.565-0.282,5.608-2.854,11.896-7.398C79.61,146.897,78.816,146.659,78.072,146.288z"/>
<path style="fill:#FFC552;" d="M283.316,1.877c-4.398-1.822-15.037-4.55-27.316,4.277c-12.278-8.828-22.918-6.099-27.316-4.277
	c-9.462,3.92-15.577,13.206-15.577,23.656c0,30.742,37.648,49.919,39.251,50.72c2.273,1.136,5.012,1.136,7.284,0
	c1.603-0.801,39.25-19.978,39.25-50.72C298.893,15.083,292.778,5.797,283.316,1.877z"/>
<path style="fill:#FC9C47;" d="M269.189,68.103c-1.603-0.801-39.251-19.978-39.251-50.72c0-6.588,2.433-12.709,6.6-17.319
	c-3.402,0.235-6.117,1.093-7.854,1.812c-9.462,3.92-15.577,13.206-15.577,23.656c0,30.742,37.648,49.919,39.251,50.72
	c2.273,1.136,5.012,1.136,7.284,0c0.565-0.282,5.615-2.858,11.911-7.41C270.737,68.716,269.937,68.477,269.189,68.103z"/>
<g>
</g>
<g>
</g>
<g>
</g>
<g>
</g>
<g>
</g>
<g>
</g>
<g>
</g>
<g>
</g>
<g>
</g>
<g>
</g>
<g>
</g>
<g>
</g>
<g>
</g>
<g>
</g>
<g>
</g>
</svg>
