<?xml version="1.0" encoding="iso-8859-1"?>
<!-- Generator: Adobe Illustrator 19.0.0, SVG Export Plug-In . SVG Version: 6.00 Build 0)  -->
<svg version="1.1" id="Capa_1" xmlns="http://www.w3.org/2000/svg" xmlns:xlink="http://www.w3.org/1999/xlink" x="0px" y="0px"
	 viewBox="0 0 512 512" style="enable-background:new 0 0 512 512;" xml:space="preserve">
<path style="fill:#78A7AF;" d="M350.748,137.425h-32.969c2.048-8.765,2.025-17.138,1.112-23.308h-15.199
	c0.024,0.235,0.058,0.472,0.105,0.708c0.063,0.317,6.064,31.856-21.053,45.679c-3.69,1.881-5.157,6.397-3.276,10.088
	c1.325,2.6,3.957,4.096,6.688,4.096c1.146,0,2.309-0.264,3.4-0.82c10.744-5.477,17.879-13.163,22.487-21.442h42
	c1.373,0,2.655-0.375,3.762-1.019L350.748,137.425z"/>
<path style="fill:#B1E8FF;" d="M410.762,202.852h-37.578c-6.54,0-11.893,5.32-11.893,11.822v49.482
	c0,6.502-4.938,13.874-10.973,16.383l-124.793,51.872c-6.034,2.509-10.973,9.882-10.973,16.384v151.384
	c0,6.501,5.353,11.821,11.894,11.821h184.315c6.541,0,11.893-5.32,11.893-11.821V214.675
	C422.655,208.173,417.303,202.852,410.762,202.852z"/>
<rect x="383.26" y="215.68" style="fill:#FFFFFF;" width="15" height="46.32"/>
<path style="fill:#34A1D7;" d="M361.292,253v11.156c0,6.502-4.938,13.874-10.973,16.383l-124.793,51.872
	c-6.034,2.509-10.973,9.882-10.973,16.384v151.384c0,6.501,5.353,11.821,11.894,11.821h184.315c6.541,0,11.893-5.32,11.893-11.821
	V253H361.292z"/>
<g style="opacity:0.1;">
	<path style="fill:#231F20;" d="M242.754,500.179V325.25l-17.229,7.161c-6.034,2.509-10.973,9.882-10.973,16.384v151.384
		c0,6.501,5.353,11.821,11.894,11.821h28.202C248.107,512,242.754,506.68,242.754,500.179z"/>
</g>
<path style="fill:#78A7AF;" d="M280.464,75.242h-19.951c-2.833,0-5.151,2.318-5.151,5.151v19.516c0,2.833,2.318,5.151,5.151,5.151
	h19.951V75.242z"/>
<path style="fill:#E6E9ED;" d="M282.925,64.473c-2.833,0-5.151,2.318-5.151,5.151v44.814c0,2.833,2.318,5.151,5.151,5.151h45.219
	c2.833,0,6.195,2.069,7.472,4.599l31.816,63.042c1.276,2.529,4.639,4.599,7.472,4.599h30.218c2.833,0,5.739-2.241,6.46-4.982
	l23.217-88.402c0.72-2.74-0.096-6.825-1.813-9.079L417.144,68.57c-1.717-2.254-5.438-4.098-8.271-4.098L282.925,64.473
	L282.925,64.473z"/>
<g style="opacity:0.1;">
	<path style="fill:#231F20;" d="M392.136,186.977l-40.025-79.358c-1.276-2.529-4.639-4.599-7.472-4.599H299.42
		c-2.833,0-5.151-2.318-5.151-5.151V64.473h-11.344c-2.833,0-5.151,2.318-5.151,5.151v44.814c0,2.833,2.318,5.151,5.151,5.151
		h45.219c2.833,0,6.195,2.069,7.472,4.599l31.816,63.042c1.276,2.529,4.639,4.599,7.472,4.599h16.98
		C392.306,189.698,392.56,187.819,392.136,186.977z"/>
</g>
<path style="fill:#E23C38;" d="M430.159,211.672c0,2.833-2.317,5.151-5.15,5.151H351.97c-2.833,0-5.151-2.318-5.151-5.151V185.79
	c0-2.833,2.318-5.151,5.151-5.151h73.038c2.833,0,5.15,2.318,5.15,5.151v25.882H430.159z"/>
<path style="opacity:0.1;fill:#231F20;enable-background:new    ;" d="M369.472,211.672V185.79c0-2.833,2.317-5.151,5.15-5.151
	H351.97c-2.833,0-5.151,2.318-5.151,5.151v25.882c0,2.833,2.318,5.151,5.151,5.151h22.652
	C371.79,216.823,369.472,214.505,369.472,211.672z"/>
<path style="fill:#FFFFFF;" d="M381.028,315.163h-15.574c-3.271,0-8.416,1.026-11.434,2.279l-98.299,40.86
	c-3.018,1.255-5.487,4.94-5.487,8.192v104.129c0,3.251,2.676,5.911,5.947,5.911h124.847c3.272,0,5.948-2.66,5.948-5.911v-149.55
	C386.976,317.823,384.299,315.163,381.028,315.163z"/>
<path style="fill:#08375E;" d="M372.332,380.535c-2.519,0.763-5.752-0.406-7.188-2.6l-8.412-12.841
	c-1.436-2.191-3.786-2.191-5.222,0l-8.414,12.841c-1.436,2.193-4.67,3.362-7.188,2.6l-14.748-4.46
	c-2.516-0.762-4.317,0.738-3.999,3.336l1.857,15.211c0.318,2.598-1.405,5.56-3.824,6.584l-14.182,6.006
	c-2.42,1.024-2.828,3.325-0.907,5.112l11.26,10.466c1.921,1.785,2.519,5.154,1.328,7.485l-5.815,11.386h80.099v-65.555
	L372.332,380.535z"/>
<path style="fill:#E23C38;" d="M250.234,441.661v28.963c0,3.251,2.676,5.911,5.947,5.911h124.847c3.272,0,5.948-2.66,5.948-5.911
	v-28.963H250.234z"/>
<path style="fill:#FCC96C;" d="M174.765,158.281c-1.473,0-2.78-0.953-3.22-2.357c-5.279-16.886-8.906-20.497-25.867-25.756
	c-1.411-0.438-2.373-1.735-2.373-3.206c0-1.47,0.962-2.767,2.373-3.203c16.961-5.26,20.588-8.869,25.867-25.757
	c0.44-1.404,1.747-2.36,3.22-2.36c1.479,0,2.782,0.956,3.219,2.36c5.284,16.888,8.91,20.497,25.872,25.757
	c1.41,0.437,2.37,1.733,2.37,3.203c0,1.471-0.96,2.769-2.37,3.206c-16.962,5.259-20.588,8.87-25.872,25.756
	C177.548,157.328,176.244,158.281,174.765,158.281z"/>
<path style="fill:#FFBB4A;" d="M198.85,53.495c-1.258,0-2.376-0.813-2.751-2.013c-4.509-14.422-7.606-17.506-22.091-21.995
	c-1.205-0.375-2.027-1.483-2.027-2.739c0-1.255,0.822-2.363,2.027-2.736c14.485-4.491,17.582-7.574,22.091-21.996
	C196.474,0.816,197.592,0,198.85,0c1.262,0,2.375,0.816,2.749,2.016c4.512,14.422,7.609,17.505,22.095,21.996
	c1.204,0.373,2.023,1.482,2.023,2.736c0,1.256-0.82,2.364-2.023,2.739c-14.486,4.489-17.583,7.573-22.095,21.995
	C201.225,52.682,200.112,53.495,198.85,53.495z"/>
<path style="fill:#B1E8FF;" d="M115.69,59.83c-1.98,0-3.91-0.811-5.31-2.2c-1.39-1.4-2.19-3.33-2.19-5.311
	c0-1.97,0.8-3.899,2.19-5.3c1.4-1.39,3.33-2.2,5.31-2.2c1.97,0,3.91,0.811,5.3,2.2c1.4,1.4,2.2,3.33,2.2,5.3
	c0,1.98-0.8,3.91-2.2,5.311C119.589,59.02,117.659,59.83,115.69,59.83z"/>
<g>
	<path style="fill:#86D5B5;" d="M84.44,87.92c-1.97,0-3.91-0.8-5.3-2.19c-1.4-1.399-2.2-3.33-2.2-5.31c0-1.97,0.8-3.9,2.2-5.3
		c1.39-1.4,3.33-2.2,5.3-2.2s3.91,0.8,5.3,2.2c1.4,1.399,2.2,3.33,2.2,5.3c0,1.979-0.8,3.91-2.2,5.31
		C88.349,87.12,86.409,87.92,84.44,87.92z"/>
	<path style="fill:#86D5B5;" d="M150.71,80.16c-1.97,0-3.9-0.801-5.3-2.2c-1.4-1.4-2.2-3.33-2.2-5.3c0-1.98,0.8-3.91,2.2-5.311
		c1.4-1.39,3.33-2.189,5.3-2.189c1.98,0,3.91,0.8,5.31,2.189c1.39,1.4,2.19,3.33,2.19,5.311c0,1.97-0.8,3.899-2.19,5.3
		C154.619,79.359,152.69,80.16,150.71,80.16z"/>
	<path style="fill:#86D5B5;" d="M223.36,99.63c-1.97,0-3.9-0.8-5.3-2.2c-1.4-1.39-2.2-3.33-2.2-5.3s0.8-3.91,2.2-5.3
		c1.4-1.4,3.329-2.2,5.3-2.2c1.98,0,3.91,0.8,5.31,2.2c1.39,1.39,2.19,3.33,2.19,5.3s-0.8,3.91-2.19,5.3
		C227.27,98.83,225.339,99.63,223.36,99.63z"/>
</g>
<g>
</g>
<g>
</g>
<g>
</g>
<g>
</g>
<g>
</g>
<g>
</g>
<g>
</g>
<g>
</g>
<g>
</g>
<g>
</g>
<g>
</g>
<g>
</g>
<g>
</g>
<g>
</g>
<g>
</g>
</svg>
