<?xml version="1.0" encoding="iso-8859-1"?>
<!-- Generator: Adobe Illustrator 19.0.0, SVG Export Plug-In . SVG Version: 6.00 Build 0)  -->
<svg version="1.1" id="Capa_1" xmlns="http://www.w3.org/2000/svg" xmlns:xlink="http://www.w3.org/1999/xlink" x="0px" y="0px"
	 viewBox="0 0 512 512" style="enable-background:new 0 0 512 512;" xml:space="preserve">
<path style="fill:#FCC96C;" d="M187.733,70.924l-23.075,1.603c-2.826,0.196-5.138,2.675-5.138,5.508l-0.001,22.928
	c0,2.833,2.313,5.312,5.138,5.509l23.075,1.605L187.733,70.924z"/>
<path style="fill:#FFBB4A;" d="M0.119,495.889C0.119,504.787,7.37,512,16.315,512h291.542c8.944,0,16.197-7.213,16.197-16.111
	V446.53H0.119V495.889z"/>
<g>
	<path style="fill:#FF9F3D;" d="M283.562,492.767c-5.372,0-10.744-2.033-14.833-6.102c-2.936-2.921-2.95-7.67-0.028-10.606
		c2.92-2.939,7.669-2.951,10.607-0.028c2.347,2.334,6.163,2.334,8.51,0c2.936-2.92,7.686-2.907,10.607,0.028
		c2.921,2.936,2.909,7.686-0.028,10.606C294.306,490.732,288.934,492.767,283.562,492.767z"/>
	<path style="fill:#FF9F3D;" d="M235.066,482.021c-5.372,0-10.744-2.033-14.833-6.102c-2.937-2.921-2.95-7.67-0.028-10.606
		c2.921-2.939,7.67-2.95,10.607-0.028c2.346,2.334,6.163,2.334,8.511,0c2.936-2.92,7.686-2.907,10.606,0.028
		c2.921,2.938,2.908,7.685-0.029,10.606C245.811,479.986,240.437,482.021,235.066,482.021z"/>
	<path style="fill:#FF9F3D;" d="M185.032,492.767c-5.373,0-10.743-2.033-14.833-6.102c-2.937-2.921-2.95-7.67-0.028-10.606
		c2.921-2.939,7.669-2.951,10.607-0.028c2.345,2.332,6.164,2.332,8.511-0.001c2.938-2.92,7.687-2.907,10.607,0.03
		c2.921,2.936,2.908,7.685-0.029,10.606C195.776,490.732,190.403,492.767,185.032,492.767z"/>
	<path style="fill:#FF9F3D;" d="M136.536,482.021c-5.373,0-10.744-2.033-14.833-6.103c-2.937-2.921-2.949-7.67-0.027-10.607
		s7.669-2.948,10.606-0.026c2.346,2.333,6.164,2.333,8.511-0.002c2.938-2.92,7.686-2.907,10.606,0.03
		c2.921,2.936,2.908,7.685-0.029,10.606C147.28,479.986,141.908,482.021,136.536,482.021z"/>
	<path style="fill:#FF9F3D;" d="M86.502,492.767c-5.372,0-10.744-2.033-14.834-6.101c-2.937-2.921-2.951-7.669-0.03-10.606
		c2.922-2.938,7.671-2.95,10.606-0.03c2.348,2.334,6.166,2.335,8.513,0.001c2.938-2.92,7.687-2.907,10.606,0.028
		c2.921,2.936,2.908,7.686-0.028,10.606C97.246,490.732,91.874,492.767,86.502,492.767z"/>
	<path style="fill:#FF9F3D;" d="M38.006,482.021c-5.372,0-10.744-2.033-14.833-6.102c-2.936-2.921-2.95-7.67-0.028-10.606
		c2.92-2.939,7.669-2.95,10.606-0.028c2.346,2.335,6.165,2.333,8.511,0c2.938-2.92,7.687-2.907,10.607,0.028
		c2.921,2.936,2.908,7.685-0.028,10.606C48.751,479.987,43.378,482.021,38.006,482.021z"/>
</g>
<path style="fill:#34A1D7;" d="M324.053,446.529v-26.234c0-2.602-1.873-4.832-4.453-5.289c-3.983-0.707-6.555-2.347-9.043-3.933
	c-3.471-2.21-6.749-4.297-13.497-4.297c-6.747,0-10.026,2.087-13.498,4.297c-3.315,2.115-6.745,4.299-13.494,4.299
	c-6.75,0-10.179-2.184-13.497-4.299c-3.47-2.21-6.748-4.297-13.496-4.297s-10.023,2.087-13.495,4.297
	c-3.318,2.115-6.747,4.299-13.493,4.299c-6.751,0-10.181-2.184-13.499-4.299c-3.469-2.21-6.747-4.297-13.493-4.297
	c-6.747,0-10.027,2.087-13.498,4.297c-3.315,2.115-6.747,4.299-13.495,4.299s-10.178-2.184-13.498-4.299
	c-3.469-2.21-6.748-4.297-13.497-4.297c-6.751,0-10.028,2.089-13.499,4.299c-3.322,2.113-6.748,4.297-13.498,4.297
	c-6.747,0-10.178-2.184-13.496-4.297c-3.47-2.21-6.749-4.299-13.498-4.299c-6.753,0-10.03,2.089-13.503,4.299
	c-3.316,2.113-6.748,4.297-13.495,4.297c-6.75,0-10.183-2.184-13.498-4.297c-3.473-2.21-6.75-4.299-13.502-4.299
	c-6.753,0-10.031,2.089-13.502,4.299c-2.488,1.584-5.066,3.224-9.048,3.931c-2.576,0.457-4.451,2.687-4.451,5.289v26.234H324.053z"
	/>
<path style="fill:#3EAF91;" d="M123.503,366.165c-14.856,0-26.945-12.023-26.945-26.802c0-6.163,2.146-12.157,6.046-16.916
	l17.311-29.828c0.738-1.275,2.107-2.061,3.588-2.061l0,0c1.479,0,2.85,0.785,3.59,2.063l17.304,29.826
	c3.903,4.772,6.046,10.763,6.046,16.916C150.444,354.142,138.357,366.165,123.503,366.165z"/>
<path style="opacity:0.1;fill:#231F20;enable-background:new    ;" d="M113.52,344.578c0-6.163,2.146-12.156,6.046-16.915
	l13.93-24.005l-6.403-11.037c-0.74-1.277-2.111-2.063-3.59-2.063c-1.481,0-2.85,0.785-3.588,2.061l-17.311,29.828
	c-3.901,4.759-6.046,10.753-6.046,16.916c0,14.778,12.089,26.802,26.945,26.802c0.329,0,0.654-0.013,0.98-0.025
	C117.839,361.255,113.52,353.409,113.52,344.578z"/>
<path style="fill:#3EAF91;" d="M181.91,269.123c-12.531,0-22.729-10.145-22.729-22.611c0-5.198,1.809-10.252,5.101-14.269
	l14.6-25.159c0.623-1.074,1.779-1.738,3.029-1.738l0,0c1.247,0,2.404,0.664,3.027,1.738l14.596,25.159
	c3.292,4.024,5.101,9.081,5.101,14.269C204.634,258.978,194.439,269.123,181.91,269.123z"/>
<path style="opacity:0.1;fill:#231F20;enable-background:new    ;" d="M176.552,251.838c0-5.198,1.809-10.252,5.101-14.269
	l10.486-18.07l-7.202-12.415c-0.624-1.074-1.781-1.738-3.027-1.738c-1.25,0-2.406,0.664-3.029,1.738l-14.6,25.159
	c-3.292,4.017-5.101,9.07-5.101,14.269c0,12.467,10.198,22.611,22.729,22.611c0.869,0,1.725-0.054,2.569-0.149
	C179.631,264.824,176.552,258.684,176.552,251.838z"/>
<path style="fill:#FFBB4A;" d="M231.001,89.499c0-13.375,2.267-25.979,6.251-37.044l-45.205,4.335
	c-2.821,0.269-5.128,2.806-5.128,5.639l-0.001,54.14c0,2.833,2.307,5.371,5.128,5.639l45.092,4.006
	C233.227,115.228,231.002,102.742,231.001,89.499z"/>
<path style="fill:#E6E9ED;" d="M511.883,162.875c0,5.191-3.651,9.664-8.732,10.695c-17.749,3.602-36.46,5.43-55.612,5.43
	c-47.068,0-91.875-11.363-122.934-31.168c-2.394-1.528-5.501-0.988-7.236,1.259c-9.85,12.71-22.422,19.711-35.394,19.711
	c-29.678,0-53.821-35.57-53.822-79.303c0-43.732,24.142-79.309,53.823-79.309c12.971,0,25.545,7.002,35.392,19.718
	c1.737,2.24,4.844,2.784,7.238,1.259C355.662,11.36,400.471,0,447.539,0c19.152,0,37.863,1.826,55.612,5.426
	c5.082,1.034,8.732,5.502,8.732,10.693V162.875z"/>
<path style="fill:#3EAF91;" d="M324.605,147.832C355.664,167.637,400.471,179,447.539,179c19.152,0,37.863-1.828,55.612-5.43
	c5.081-1.031,8.732-5.504,8.732-10.695V65.522l-281.721,45.387c6.358,33.358,27.17,57.893,51.813,57.893
	c12.972,0,25.544-7.001,35.394-19.711C319.104,146.844,322.211,146.304,324.605,147.832z"/>
<g style="opacity:0.1;">
	<path style="fill:#231F20;" d="M250.42,89.499c0-38.076,18.304-69.96,42.628-77.571c-3.621-1.136-7.329-1.737-11.072-1.737
		c-29.681,0-53.823,35.576-53.823,79.309c0.001,43.732,24.144,79.303,53.822,79.303c3.744,0,7.451-0.602,11.073-1.736
		C268.725,159.454,250.42,127.575,250.42,89.499z"/>
</g>
<path style="fill:#FFBB4A;" d="M511.883,139.65V39.345c-4.838-0.153-9.74-0.232-14.701-0.232
	c-84.217,0-152.488,22.562-152.488,50.387c0.006,27.828,68.269,50.389,152.488,50.389
	C502.143,139.888,507.045,139.805,511.883,139.65z"/>
<g>
	<path style="fill:#FFFFFF;" d="M427.063,107.796c-4.142,0-7.5-3.357-7.5-7.5v-21.59c0-4.143,3.358-7.5,7.5-7.5s7.5,3.357,7.5,7.5
		v21.59C434.563,104.438,431.205,107.796,427.063,107.796z"/>
	<path style="fill:#FFFFFF;" d="M456.886,116.078c-4.142,0-7.5-3.357-7.5-7.5V70.423c0-4.143,3.358-7.5,7.5-7.5s7.5,3.357,7.5,7.5
		v38.155C464.386,112.721,461.028,116.078,456.886,116.078z"/>
</g>
<ellipse style="fill:#3EAF91;" cx="126.681" cy="151.91" rx="18.666" ry="18.623"/>
<path style="opacity:0.1;fill:#231F20;enable-background:new    ;" d="M22.722,495.889V446.53H0.119v49.359
	C0.119,504.787,7.37,512,16.315,512h22.604C29.974,512,22.722,504.787,22.722,495.889z"/>
<g style="opacity:0.1;">
	<path style="fill:#231F20;" d="M27.173,415.006c3.982-0.707,6.56-2.347,9.048-3.931c0.73-0.465,1.453-0.922,2.199-1.358
		c-2.806-1.637-5.969-2.94-11.301-2.94c-6.753,0-10.031,2.089-13.502,4.299c-2.488,1.584-5.066,3.224-9.048,3.931
		c-2.576,0.457-4.451,2.687-4.451,5.289v26.234h22.604v-26.234C22.722,417.692,24.598,415.463,27.173,415.006z"/>
</g>
<g>
</g>
<g>
</g>
<g>
</g>
<g>
</g>
<g>
</g>
<g>
</g>
<g>
</g>
<g>
</g>
<g>
</g>
<g>
</g>
<g>
</g>
<g>
</g>
<g>
</g>
<g>
</g>
<g>
</g>
</svg>
