<?xml version="1.0" encoding="iso-8859-1"?>
<!-- Generator: Adobe Illustrator 19.0.0, SVG Export Plug-In . SVG Version: 6.00 Build 0)  -->
<svg version="1.1" id="Layer_1" xmlns="http://www.w3.org/2000/svg" xmlns:xlink="http://www.w3.org/1999/xlink" x="0px" y="0px"
	 viewBox="0 0 512 512" style="enable-background:new 0 0 512 512;" xml:space="preserve">
<g>
	<path style="fill:#E8EDEE;" d="M316.746,104.136v104.136c22.563,0,86.78,15.62,86.78,86.78v208.271h104.136V295.051
		C507.661,163.146,395.715,104.136,316.746,104.136"/>
	<path style="fill:#E8EDEE;" d="M195.254,104.136v104.136c-71.159,0-86.78,64.217-86.78,86.78H4.339
		C4.339,216.081,63.349,104.136,195.254,104.136"/>
</g>
<path style="fill:#C7CBC7;" d="M195.254,208.271h121.492V104.136H195.254V208.271z"/>
<path style="fill:#E8EDEE;" d="M221.288,104.136h69.424V69.424h-69.424V104.136z"/>
<path style="fill:#C7CBC7;" d="M507.661,34.712H351.458l-43.39,34.712h-86.78V34.712h69.424L334.102,0h173.559V34.712z"/>
<path style="fill:#E8EDEE;" d="M273.356,34.712h-34.712V17.356C238.644,7.81,246.454,0,256,0c9.546,0,17.356,7.81,17.356,17.356
	V34.712z"/>
<g>
	<path style="fill:#7FABDA;" d="M30.373,355.797c-5.207,0-8.678-3.471-8.678-8.678v-17.356c0-5.207,3.471-8.678,8.678-8.678
		s8.678,3.471,8.678,8.678v17.356C39.051,352.325,35.58,355.797,30.373,355.797 M30.373,407.864c-5.207,0-8.678-3.471-8.678-8.678
		v-17.356c0-5.207,3.471-8.678,8.678-8.678s8.678,3.471,8.678,8.678v17.356C39.051,404.393,35.58,407.864,30.373,407.864
		 M30.373,459.932c-5.207,0-8.678-3.471-8.678-8.678v-17.356c0-5.207,3.471-8.678,8.678-8.678s8.678,3.471,8.678,8.678v17.356
		C39.051,456.461,35.58,459.932,30.373,459.932 M30.373,512c-5.207,0-8.678-3.471-8.678-8.678v-17.356
		c0-5.207,3.471-8.678,8.678-8.678s8.678,3.471,8.678,8.678v17.356C39.051,508.529,35.58,512,30.373,512"/>
	<path style="fill:#7FABDA;" d="M73.763,355.797c-5.207,0-8.678-3.471-8.678-8.678v-17.356c0-5.207,3.471-8.678,8.678-8.678
		c5.207,0,8.678,3.471,8.678,8.678v17.356C82.441,352.325,78.969,355.797,73.763,355.797 M73.763,407.864
		c-5.207,0-8.678-3.471-8.678-8.678v-17.356c0-5.207,3.471-8.678,8.678-8.678c5.207,0,8.678,3.471,8.678,8.678v17.356
		C82.441,404.393,78.969,407.864,73.763,407.864 M73.763,459.932c-5.207,0-8.678-3.471-8.678-8.678v-17.356
		c0-5.207,3.471-8.678,8.678-8.678c5.207,0,8.678,3.471,8.678,8.678v17.356C82.441,456.461,78.969,459.932,73.763,459.932
		 M73.763,512c-5.207,0-8.678-3.471-8.678-8.678v-17.356c0-5.207,3.471-8.678,8.678-8.678c5.207,0,8.678,3.471,8.678,8.678v17.356
		C82.441,508.529,78.969,512,73.763,512"/>
</g>
<g>
</g>
<g>
</g>
<g>
</g>
<g>
</g>
<g>
</g>
<g>
</g>
<g>
</g>
<g>
</g>
<g>
</g>
<g>
</g>
<g>
</g>
<g>
</g>
<g>
</g>
<g>
</g>
<g>
</g>
</svg>
