<?xml version="1.0" encoding="utf-8"?>
<!-- Generator: Adobe Illustrator 16.0.0, SVG Export Plug-In . SVG Version: 6.00 Build 0)  -->
<!DOCTYPE svg PUBLIC "-//W3C//DTD SVG 1.1//EN" "http://www.w3.org/Graphics/SVG/1.1/DTD/svg11.dtd">
<svg version="1.1" id="Calque_1" xmlns="http://www.w3.org/2000/svg" xmlns:xlink="http://www.w3.org/1999/xlink" x="0px" y="0px"
	 width="24px" height="24px" viewBox="0 0 24 24" enable-background="new 0 0 24 24" xml:space="preserve">
<path fill="#FF0000" d="M9.279,13.52H8.34v5.027H7.432V13.52h-0.94v-0.854H9.28L9.279,13.52L9.279,13.52z M14.674,15.241v2.405
	c0,0.537-0.199,0.955-0.736,0.955c-0.295,0-0.541-0.108-0.767-0.389v0.333h-0.813v-5.88h0.813v1.893
	c0.183-0.222,0.429-0.404,0.718-0.404C14.479,14.154,14.674,14.652,14.674,15.241z M13.844,15.29c0-0.146-0.027-0.257-0.086-0.333
	c-0.098-0.129-0.279-0.143-0.42-0.071l-0.167,0.132v2.703l0.19,0.153c0.132,0.065,0.324,0.071,0.412-0.045
	c0.047-0.062,0.069-0.161,0.069-0.299L13.844,15.29L13.844,15.29z M11.497,9.431c0.229,0,0.354-0.183,0.354-0.431V6.881
	c0-0.255-0.111-0.434-0.371-0.434c-0.237,0-0.353,0.185-0.353,0.434V9C11.128,9.24,11.264,9.431,11.497,9.431z M10.764,17.501
	c-0.099,0.123-0.317,0.325-0.475,0.325c-0.172,0-0.215-0.118-0.215-0.292v-3.325H9.269v3.626c0,0.88,0.597,0.885,1.031,0.636
	c0.16-0.092,0.315-0.227,0.464-0.402v0.479h0.807v-4.338h-0.807V17.501z M24,5v14c0,2.761-2.238,5-5,5H5c-2.761,0-5-2.239-5-5V5
	c0-2.761,2.239-5,5-5h14C21.762,0,24,2.239,24,5z M13.434,9.427c0,0.45,0.137,0.813,0.592,0.813c0.257,0,0.611-0.133,0.979-0.569
	v0.503h0.847V5.62h-0.847v3.457c-0.104,0.129-0.333,0.341-0.498,0.341c-0.182,0-0.226-0.124-0.226-0.307V5.62h-0.848V9.427z
	 M10.257,6.806v2.233c0,0.803,0.419,1.22,1.24,1.22c0.682,0,1.218-0.456,1.218-1.22V6.806c0-0.713-0.531-1.224-1.218-1.224
	C10.752,5.582,10.257,6.075,10.257,6.806z M7.102,4l1.135,3.67v2.504H9.19V7.67L10.3,4H9.331L8.72,6.468L8.062,4H7.102z
	 M18.666,15.667c-0.014-2.978-0.232-4.116-2.111-4.245c-1.734-0.118-7.376-0.118-9.109,0c-1.876,0.128-2.098,1.262-2.111,4.245
	c0.014,2.978,0.233,4.117,2.111,4.245c1.732,0.118,7.375,0.118,9.109,0C18.432,19.783,18.652,18.65,18.666,15.667z M17.654,15.375
	v1.104h-1.541v0.818c0,0.325,0.027,0.607,0.352,0.607c0.34,0,0.36-0.229,0.36-0.607v-0.301h0.829v0.326
	c0,0.836-0.357,1.342-1.207,1.342c-0.771,0-1.164-0.561-1.164-1.342v-1.947c0-0.753,0.496-1.275,1.225-1.275
	C17.281,14.1,17.654,14.591,17.654,15.375z M16.825,15.367c0-0.293-0.062-0.508-0.353-0.508c-0.3,0-0.359,0.209-0.359,0.508v0.439
	h0.712V15.367z"/>
</svg>
